<svg xmlns="http://www.w3.org/2000/svg" viewBox="0 0 320 760" role="img" aria-label="侧边猫咪绿植装饰">
<defs><linearGradient id="wall" x1="0" y1="0" x2="1" y2="1"><stop stop-color="#fffaf0"/><stop offset="1" stop-color="#eaf4ff"/></linearGradient><linearGradient id="cat" x1="0" y1="0" x2="1" y2="1"><stop stop-color="#ffd387"/><stop offset="1" stop-color="#eaa65d"/></linearGradient></defs>
<style>.cat{animation:breathe 5s ease-in-out infinite}.leaf{animation:leaf 6s ease-in-out infinite;transform-box:fill-box;transform-origin:bottom center}.heart{animation:heart 3.8s ease-in-out infinite}.blink{animation:blink 8s infinite}@keyframes breathe{50%{transform:translateY(-4px)}}@keyframes leaf{50%{transform:rotate(4deg)}}@keyframes heart{50%{transform:translateY(-7px);opacity:.55}}@keyframes blink{0%,47%,51%,100%{opacity:0}48%,50%{opacity:1}}@media(prefers-reduced-motion:reduce){*{animation:none!important}}</style>
<rect x="18" y="44" width="284" height="680" rx="42" fill="url(#wall)" opacity=".95"/>
<g fill="#75aa65"><ellipse class="leaf" cx="72" cy="125" rx="24" ry="62" transform="rotate(-24 72 125)"/><ellipse class="leaf" cx="116" cy="111" rx="24" ry="58" transform="rotate(20 116 111)"/><ellipse class="leaf" cx="250" cy="325" rx="25" ry="62" transform="rotate(22 250 325)"/><ellipse class="leaf" cx="226" cy="373" rx="20" ry="50" transform="rotate(-24 226 373)"/><ellipse class="leaf" cx="72" cy="590" rx="25" ry="64" transform="rotate(-22 72 590)"/></g>
<g fill="#fff" stroke="#efd071" stroke-width="4"><circle cx="61" cy="196" r="13"/><circle cx="84" cy="196" r="13"/><circle cx="72" cy="176" r="13"/><circle cx="72" cy="216" r="13"/></g>
<rect x="43" y="219" width="234" height="26" rx="13" fill="#f0ddca"/><rect x="34" y="244" width="252" height="138" rx="28" fill="#f6eee4"/>
<g class="cat" transform="translate(45 337)"><ellipse cx="118" cy="126" rx="93" ry="70" fill="url(#cat)"/><path d="M42 91 67 24l52 53M192 91l-21-67-52 53" fill="url(#cat)"/><path d="M57 76 69 44l27 24M179 76l-12-32-27 24" fill="#f4acb1"/><ellipse cx="118" cy="104" rx="76" ry="57" fill="#fff8ee"/><path d="M83 103q13-14 27 0M126 103q13-14 27 0" fill="none" stroke="#443b37" stroke-width="6" stroke-linecap="round"/><ellipse class="blink" cx="96" cy="103" rx="16" ry="6" fill="#fff8ee"/><ellipse class="blink" cx="140" cy="103" rx="16" ry="6" fill="#fff8ee"/><path d="M111 118q7 8 14 0" fill="#e98c91"/><path d="M118 122q-4 16-18 12M119 122q5 16 18 12" fill="none" stroke="#443b37" stroke-width="4.5" stroke-linecap="round"/><ellipse cx="58" cy="161" rx="47" ry="33" fill="#fff8ee"/><ellipse cx="179" cy="161" rx="47" ry="33" fill="#fff8ee"/><path d="M205 153q44 17 35 71" fill="none" stroke="#d8914c" stroke-width="24" stroke-linecap="round"/></g>
<path class="heart" d="M245 485c-22-21-53 11-10 45 43-34 12-66-10-45Z" fill="#f6a6a6" opacity=".75"/>
<g fill="#fff" opacity=".88"><ellipse cx="83" cy="698" rx="78" ry="42"/><ellipse cx="154" cy="689" rx="94" ry="52"/><ellipse cx="235" cy="704" rx="78" ry="41"/></g>
</svg>